PathFileType	4	(X/Y/Z)	G:\Shared drives\HPL_Drive\Nord Sprinting Study\Kristen_Nord_test\Trimmed_Nord000007.trc
DataRate	CameraRate	NumFrames	NumMarkers	Units	OrigDataRate	OrigDataStartFrame	OrigNumFrames
200.00	200.00	      4	52	mm	200.00	242	      1933
Frame#	Time	C7			R_Shoulder			L_Shoulder			Sternum			R_humerus			R_elbow_med			R_elbow_lat			R_forearm			R_wrist_radius			R_wrist_ulna			L_humerus			L_elbow_med			L_elbow_lat			L_forearm			L_wrist_radius			L_wrist_ulna			r.ASIS			r.PSIS			r_IC			L.ASIS			L.PSIS			l_IC			r_thigh1			r_thigh2			r_thigh3			r_thigh4			r_thigh5			r_knee			r_mknee			r_shank_antsup			r_sh2			r_sh3			r_sh4			r_ankle			r_mankle			r_calc			r_5meta			r_toe			L_thigh1			L_thigh2			L_thigh3			L_thigh4			L_knee			L_mknee			L_shank_antsup			L_sh2			L_sh3			L_ankle			L_mankle			L_calc			L_5meta			L_toe			
		X1	Y1	Z1	X2	Y2	Z2	X3	Y3	Z3	X4	Y4	Z4	X5	Y5	Z5	X6	Y6	Z6	X7	Y7	Z7	X8	Y8	Z8	X9	Y9	Z9	X10	Y10	Z10	X11	Y11	Z11	X12	Y12	Z12	X13	Y13	Z13	X14	Y14	Z14	X15	Y15	Z15	X16	Y16	Z16	X17	Y17	Z17	X18	Y18	Z18	X19	Y19	Z19	X20	Y20	Z20	X21	Y21	Z21	X22	Y22	Z22	X23	Y23	Z23	X24	Y24	Z24	X25	Y25	Z25	X26	Y26	Z26	X27	Y27	Z27	X28	Y28	Z28	X29	Y29	Z29	X30	Y30	Z30	X31	Y31	Z31	X32	Y32	Z32	X33	Y33	Z33	X34	Y34	Z34	X35	Y35	Z35	X36	Y36	Z36	X37	Y37	Z37	X38	Y38	Z38	X39	Y39	Z39	X40	Y40	Z40	X41	Y41	Z41	X42	Y42	Z42	X43	Y43	Z43	X44	Y44	Z44	X45	Y45	Z45	X46	Y46	Z46	X47	Y47	Z47	X48	Y48	Z48	X49	Y49	Z49	X50	Y50	Z50	X51	Y51	Z51	X52	Y52	Z52	

242	1.205	1227.40442	345.75674	1286.58728	1346.07629	402.60367	1291.17688	1080.12817	377.85938	1296.92444	1208.01404	474.09375	1244.21753	1519.64343	385.81131	1226.82544	1629.34045	428.95111	1122.28857	1636.35144	358.24539	1161.93530	1601.64087	403.67477	1274.07849	1540.75781	473.75168	1351.53430	1581.38098	454.96854	1368.91516	887.54340	329.46005	1228.20325	787.10925	371.60190	1133.17163	782.68536	301.85367	1167.06604	832.23981	357.30890	1293.96106	888.23730	410.24417	1359.68042	839.13635	411.31000	1374.11951	1332.15320	479.19159	778.93555	1291.31384	303.99719	856.76819	1371.38477	413.62299	868.14435	1092.02112	461.62207	778.53442	1174.13440	297.93375	850.97504	1067.96191	400.10873	857.28131	1383.48389	421.71042	518.79187	1376.43445	407.32773	405.40891	1390.35767	356.30597	382.71127	1397.52747	315.49750	535.73291	1373.61353	302.01712	419.23633	1369.54211	353.38004	303.60974	1244.22412	333.85669	320.04868	1389.44849	217.79956	287.25723	1371.29761	99.57962	284.03052	1390.25598	213.57539	362.15671	1371.05835	99.99636	365.84912	1354.57153	-64.60324	319.65775	1277.15112	-49.31393	287.67816	1299.13464	-93.01079	375.44644	1375.06787	-139.57306	221.51041	1336.27820	-119.12864	169.80011	1033.06799	418.97501	526.77515	1034.56189	405.83182	387.10175	1031.91687	299.90961	546.17987	1043.41785	296.08057	410.26672	1023.84003	332.12537	328.56485	1152.65088	339.89832	306.29739	1011.18329	224.42134	301.62076	1026.92920	223.62456	391.24918	1041.56372	104.34558	378.96024	1047.37634	-74.49206	327.49811	1121.98376	-44.14202	291.33502	1103.46509	-85.44321	376.77896	1042.29871	-153.29384	212.94086	1080.76257	-123.77746	159.75243	
243	1.210	1227.42102	346.25983	1286.52454	1346.08093	403.13287	1291.14148	1080.15894	378.40045	1296.88416	1208.05994	474.58255	1244.18518	1519.68433	386.33920	1226.80469	1629.35291	429.46017	1122.32751	1636.40027	358.76306	1161.93958	1601.78076	404.12793	1274.10669	1540.77197	474.39182	1351.50671	1581.42810	455.58716	1368.90417	887.57703	330.01492	1228.19250	787.09906	372.11154	1133.15149	782.65747	302.39838	1167.08240	832.19238	357.90930	1294.06494	888.33319	410.86221	1359.57935	839.17719	411.97552	1374.04578	1332.15564	479.47672	778.85022	1291.31970	304.33426	856.76770	1371.35583	413.97614	868.04187	1092.01404	461.88824	778.40875	1174.41333	298.32684	851.16937	1067.98328	400.41306	857.23279	1383.45764	421.83105	518.81714	1376.42163	407.36966	405.35699	1390.36560	356.38226	382.70483	1397.48279	315.63443	535.61169	1372.06445	301.33527	419.27493	1369.52405	353.36203	303.59760	1244.24426	333.86710	320.06058	1389.42639	217.80467	287.25858	1371.32690	99.57545	284.07495	1390.24658	213.62418	362.16315	1371.05090	99.99268	365.86560	1354.58643	-64.60602	319.66208	1277.17151	-49.31762	287.70724	1299.16589	-93.05621	375.46628	1375.06323	-139.56114	221.48387	1336.26135	-119.14366	169.78094	1033.02722	419.03415	526.73865	1034.53845	405.87152	387.06604	1031.91125	300.05698	546.16895	1043.47522	296.07990	410.27170	1023.84198	332.12790	328.54907	1152.65125	339.89502	306.26019	1011.12701	224.34175	301.58011	1026.96912	223.69016	391.33539	1041.58447	104.41020	379.08362	1047.41797	-74.47325	327.66238	1122.01855	-44.17177	291.51132	1103.41052	-85.42751	376.87921	1042.48755	-153.21980	213.75653	1080.67383	-123.86131	159.90231	
244	1.215	1227.46301	346.73477	1286.50916	1346.22705	403.69098	1291.08606	1080.27722	378.95334	1296.84973	1208.16907	475.03696	1244.04211	1519.70630	386.86758	1226.80945	1629.37842	429.96741	1122.34009	1636.47693	359.24689	1161.94189	1601.81128	404.85461	1273.91492	1540.59412	475.65311	1351.60278	1581.48523	456.03220	1368.83252	887.59637	330.59662	1228.17456	787.09833	372.65015	1133.10657	782.39612	302.70288	1167.23071	832.24359	358.50140	1294.06116	888.36957	411.47833	1359.55859	839.18353	412.66992	1374.02246	1332.12585	479.76224	778.73450	1291.32227	304.67612	856.82532	1371.35657	414.32925	867.98944	1091.99023	462.11621	778.31952	1174.51672	298.67749	851.12140	1067.98132	400.72067	857.21045	1383.41284	421.99231	518.71558	1376.38953	407.45743	405.31097	1390.35364	356.44070	382.71097	1397.49219	315.79367	535.60187	1372.99634	301.52756	419.19009	1369.55676	353.36975	303.53595	1244.24426	333.82080	320.05734	1389.39172	217.78439	287.26553	1371.36938	99.56776	284.10938	1390.29480	213.56870	362.19824	1371.10229	100.00538	365.87900	1354.61792	-64.60236	319.70660	1277.19971	-49.31347	287.72064	1299.23962	-93.11406	375.44485	1375.12048	-139.57188	221.43703	1336.27649	-119.11367	169.79855	1032.90637	419.15399	526.70459	1034.48877	405.83414	387.01563	1031.94873	300.08966	546.23743	1043.47522	296.07492	410.31400	1023.83759	332.16245	328.54373	1152.65466	339.88922	306.22986	1011.19800	224.46613	301.64725	1027.02405	223.76398	391.39432	1041.64270	104.46519	379.19733	1047.45007	-74.45446	327.88541	1122.01123	-44.17377	291.68939	1103.63416	-85.42517	377.11581	1042.33850	-153.25484	214.03694	1080.66675	-123.93852	160.08388	
245	1.220	1227.48572	347.23965	1286.50525	1346.16785	404.10522	1291.04761	1080.29138	379.56210	1296.81848	1208.20764	475.51453	1244.02051	1519.74194	387.38947	1226.81531	1629.50171	430.47662	1122.25964	1636.43933	359.77618	1161.99121	1600.92566	405.72778	1274.02979	1540.60669	476.20798	1351.56616	1581.41260	456.72748	1368.85095	887.57178	331.14755	1228.14990	787.13898	373.21521	1133.05383	782.42273	303.25162	1167.24170	832.47021	359.29388	1293.89807	888.41980	412.09808	1359.50208	839.28931	413.33008	1373.90430	1332.14392	480.03000	778.62970	1291.36377	305.01620	856.76550	1371.35071	414.70187	867.92175	1091.96680	462.38452	778.24725	1174.48962	298.95575	851.13477	1068.01221	401.02631	857.13831	1383.93445	421.67203	518.95129	1376.37268	407.49350	405.27502	1390.36609	356.49246	382.68442	1397.50854	315.93011	535.59363	1373.01245	301.59982	419.19247	1369.55103	353.36957	303.49570	1244.25305	333.79242	320.06528	1389.46326	217.80411	287.25977	1371.38147	99.56767	284.11713	1390.30078	213.63672	362.19733	1371.15137	100.03867	365.86853	1354.66431	-64.61113	319.69611	1277.21875	-49.33711	287.75909	1299.28613	-93.13097	375.47726	1375.15564	-139.56561	221.41391	1336.31335	-119.09894	169.85019	1032.91602	419.18747	526.65869	1034.41431	405.85233	386.99200	1031.97925	300.22076	546.22253	1043.51758	296.10220	410.32797	1023.83051	332.15494	328.56433	1152.63000	339.90152	306.24405	1011.16974	224.41388	301.72281	1027.07959	223.81445	391.46246	1041.67261	104.50830	379.32117	1047.47278	-74.44849	328.10547	1122.01904	-44.19593	291.87085	1103.67041	-85.39734	377.33279	1041.94214	-153.36995	213.72705	1080.53198	-123.99074	160.31238	
